<svg xmlns="http://www.w3.org/2000/svg" xmlns:svg="http://www.w3.org/2000/svg" xmlns:xlink="http://www.w3.org/1999/xlink" id="svg2" width="72" height="72" version="1.1"><defs id="defs4"><linearGradient id="linearGradient3906"><stop style="stop-color:#fff;stop-opacity:0" id="stop3908" offset="0"/><stop style="stop-color:#fff;stop-opacity:1" id="stop3910" offset=".359"/><stop style="stop-color:#fff;stop-opacity:.43333334" id="stop3912" offset=".884"/><stop style="stop-color:#fff;stop-opacity:0" id="stop3914" offset="1"/></linearGradient><marker id="Tail" orient="auto" refX="0" refY="0" style="overflow:visible"><g id="g4692" transform="scale(-1.2)"><path id="path4694" d="M -3.8048674,-3.9585227 L 0.54352094,0" style="fill:none;fill-rule:evenodd;stroke:#000;stroke-width:.8;marker-start:none;marker-end:none;stroke-linecap:round"/><path id="path4696" d="M -1.2866832,-3.9585227 L 3.0617053,0" style="fill:none;fill-rule:evenodd;stroke:#000;stroke-width:.8;marker-start:none;marker-end:none;stroke-linecap:round"/><path id="path4698" d="M 1.3053582,-3.9585227 L 5.6537466,0" style="fill:none;fill-rule:evenodd;stroke:#000;stroke-width:.8;marker-start:none;marker-end:none;stroke-linecap:round"/><path id="path4700" d="M -3.8048674,4.1775838 L 0.54352094,0.21974226" style="fill:none;fill-rule:evenodd;stroke:#000;stroke-width:.8;marker-start:none;marker-end:none;stroke-linecap:round"/><path id="path4702" d="M -1.2866832,4.1775838 L 3.0617053,0.21974226" style="fill:none;fill-rule:evenodd;stroke:#000;stroke-width:.8;marker-start:none;marker-end:none;stroke-linecap:round"/><path id="path4704" d="M 1.3053582,4.1775838 L 5.6537466,0.21974226" style="fill:none;fill-rule:evenodd;stroke:#000;stroke-width:.8;marker-start:none;marker-end:none;stroke-linecap:round"/></g></marker><linearGradient id="linearGradient4263"><stop style="stop-color:#bfbfbf;stop-opacity:1" id="stop4265" offset="0"/><stop style="stop-color:#fff;stop-opacity:1" id="stop4267" offset="1"/></linearGradient><linearGradient id="linearGradient4158"><stop style="stop-color:#fff;stop-opacity:1" id="stop4160" offset="0"/><stop style="stop-color:#fff;stop-opacity:0" id="stop4162" offset="1"/></linearGradient><linearGradient id="linearGradient3177"><stop id="stop3187" offset="0" style="stop-color:#fff;stop-opacity:0"/><stop id="stop3200" offset=".438" style="stop-color:#fff;stop-opacity:1"/><stop id="stop3191" offset=".938" style="stop-color:#fff;stop-opacity:.43333334"/><stop id="stop3181" offset="1" style="stop-color:#fff;stop-opacity:0"/></linearGradient><linearGradient id="linearGradient3167"><stop id="stop3169" offset="0" style="stop-color:#fff;stop-opacity:1"/><stop id="stop3171" offset="1" style="stop-color:#fff;stop-opacity:0"/></linearGradient><linearGradient id="linearGradient3341" x1="337.493" x2="416.385" y1="402.106" y2="645.41" gradientTransform="matrix(0.08737273,0,0,0.08134103,83.682183,966.62592)" gradientUnits="userSpaceOnUse" xlink:href="#linearGradient3167"/><linearGradient id="linearGradient3345" x1="356.357" x2="425.961" y1="164.762" y2="646.654" gradientTransform="matrix(0.08334585,0,0,0.08334585,2.6106401,974.71004)" gradientUnits="userSpaceOnUse" xlink:href="#linearGradient3177"/><radialGradient id="radialGradient4275" cx="33.772" cy="40.636" r="17.498" fx="33.772" fy="40.636" gradientTransform="matrix(1,0,0,0.90369811,0,3.9133352)" gradientUnits="userSpaceOnUse" xlink:href="#linearGradient4263"/><linearGradient id="linearGradient3037" x1="266.694" x2="414.934" y1="164.762" y2="619.088" gradientTransform="matrix(0.08707623,0,0,0.08707623,1.0873306,972.09559)" gradientUnits="userSpaceOnUse" xlink:href="#linearGradient3906"/><radialGradient id="radialGradient3878" cx="33.772" cy="40.636" r="17.498" fx="33.772" fy="40.636" gradientTransform="matrix(1.161721,0,0,1.0498451,-2.6955965,978.41529)" gradientUnits="userSpaceOnUse" xlink:href="#linearGradient4263"/><linearGradient id="linearGradient3904" x1="-23.4" x2="8.147" y1="8.182" y2="-.75" gradientUnits="userSpaceOnUse" xlink:href="#linearGradient4263"/></defs><metadata id="metadata7"/><g id="layer1" transform="translate(0,-980.36215)"><path style="fill:#c00;fill-opacity:1;stroke:#333;stroke-width:1;stroke-linecap:round;stroke-linejoin:round;stroke-miterlimit:4;stroke-opacity:1;stroke-dasharray:none;stroke-dashoffset:0" id="path3852" d="M 24.440895,39.751599 -2.0082281,40.466448 -21.216057,22.269568 -21.930906,-4.1795557 -3.7340262,-23.387385 22.715097,-24.102234 41.922926,-5.9053538 42.637775,20.54377 z" transform="matrix(1.020506,0.02898302,-0.02898302,1.020506,25.823557,1007.5416)"/><rect style="fill:none;stroke:none" id="rect2383" width="63.579" height="63.579" x="4.087" y="984.254"/><path style="opacity:.5;fill:none;stroke:#fff;stroke-width:29.08395386;stroke-linecap:butt;stroke-linejoin:miter;stroke-miterlimit:4;stroke-opacity:1;stroke-dasharray:none" id="path3165" d="m 705.08649,515.97119 c 0,176.85171 -143.36664,320.21835 -320.21836,320.21835 -176.85171,0 -320.21835,-143.36664 -320.21835,-320.21835 0,-176.85171 143.36664,-320.21835 320.21835,-320.21835 176.85172,0 320.21836,143.36664 320.21836,320.21835 z" transform="matrix(0.08352444,0,0,0.08352444,70.275371,967.56248)"/><path style="opacity:.34680134000000001;fill:url(#linearGradient3037);fill-opacity:1;fill-rule:evenodd;stroke:none" id="path3175" d="m 66.047903,1004.1251 c 0,5.2718 0.864169,23.3397 -0.180281,23.3932 -2.00487,0.1024 -5.900696,-6.6434 -16.012316,-7.0489 -12.732886,-0.5054 -37.233924,12.3723 -43.041824,7.4175 -1.283128,-1.0946 0.073036,-21.1464 0.073036,-23.9315 0,-15.39176 30.523091,-27.66476 41.801135,-17.19059 8.772231,8.14697 4.460889,4.68423 17.36025,17.36029 z"/><g id="g3874" transform="translate(0,-1.0183706)"><path id="path4253" d="m 16.327015,1002.823 c -1.863654,-2.2619 6.211627,2.1146 16.215279,2.1511 4.174788,0.2572 5.753469,1.4661 6.926009,2.6939 2.630641,2.4784 3.20235,3.7349 6.530274,2.1316 1.355664,-0.653 3.024421,-4.5164 4.906317,-4.9301 1.467128,-0.2141 3.619526,1.6381 4.158785,2.1702 0.588684,0.581 1.124104,1.1204 1.686384,1.3781 -1.930547,0.1023 -4.605827,4.6079 -4.673811,8.435 0.384969,10.6928 -4.428822,10.1031 -9.163591,15.3349 -1.509634,1.4389 -2.355972,4.4532 -2.357366,7.2026 l -1.98861,-0.061 c -1.178808,0.027 -2.524329,-1.5071 -3.176114,-2.5347 -1.244525,-2.0738 -2.531327,1.8998 -4.46739,-1.3562 0.0896,-1.0767 -5.168452,-1.2872 -2.147546,-3.8021 7.13502,-5.0504 10.618946,-6.1142 10.469694,-7.6368 -0.176332,-1.7988 -4.359873,-0.1699 -8.138192,-0.3445 -6.241584,-0.2883 -5.554758,-4.2434 -6.10805,-6.0838 -5.239916,-2.9179 4.02799,-4.2906 -0.04194,-5.1514 -1.988675,-0.3162 -5.497532,0.4234 -6.236978,-3.016 0.66498,0.8215 9.366113,-0.8583 5.859306,-1.406 -4.865901,-2.208 -6.234889,-1.0261 -8.25246,-5.1751 z" style="fill:url(#radialGradient3878);fill-opacity:1;fill-rule:nonzero;stroke:#000;stroke-width:1.11195254;stroke-linecap:butt;stroke-linejoin:miter;stroke-miterlimit:4;stroke-opacity:1;stroke-dasharray:none"/><path id="path4279" d="m 47.889123,29.666016 c 0,0.152813 -0.123879,0.276692 -0.276692,0.276692 -0.152814,0 -0.276693,-0.123879 -0.276693,-0.276692 0,-0.152814 0.123879,-0.276693 0.276693,-0.276693 0.152813,0 0.276692,0.123879 0.276692,0.276693 z" transform="matrix(2.8140812,0,0,2.8140812,-82.170599,925.02543)" style="fill:#000;fill-opacity:1;fill-rule:nonzero;stroke:#000;stroke-width:.2;stroke-linecap:butt;stroke-linejoin:round;stroke-miterlimit:4;stroke-opacity:1;stroke-dasharray:none;stroke-dashoffset:0"/></g><path style="fill:none;stroke:url(#linearGradient3904);stroke-width:4.1448102;stroke-linecap:round;stroke-linejoin:round;stroke-miterlimit:4;stroke-opacity:1;stroke-dasharray:none;stroke-dashoffset:0" id="path3852-5" d="M 24.440895,39.751599 -2.0082281,40.466448 -21.216057,22.269568 -21.930906,-4.1795557 -3.7340262,-23.387385 22.715097,-24.102234 41.922926,-5.9053538 42.637775,20.54377 z" transform="matrix(0.94528338,0.02684664,-0.02684664,0.94528338,26.524882,1008.0673)"/></g></svg>