<svg xmlns="http://www.w3.org/2000/svg" xmlns:svg="http://www.w3.org/2000/svg" xmlns:xlink="http://www.w3.org/1999/xlink" id="svg2" width="24" height="38" version="1.1"><defs id="defs4"><linearGradient id="linearGradient4354"><stop style="stop-color:#828282;stop-opacity:1" id="stop4356" offset="0"/><stop style="stop-color:#919191;stop-opacity:1" id="stop4358" offset="1"/></linearGradient><linearGradient id="linearGradient4346"><stop style="stop-color:#828282;stop-opacity:1" id="stop4348" offset="0"/><stop style="stop-color:#000;stop-opacity:0" id="stop4350" offset="1"/></linearGradient><linearGradient id="linearGradient4321"><stop style="stop-color:#828282;stop-opacity:1" id="stop4323" offset="0"/><stop style="stop-color:#919191;stop-opacity:1" id="stop4325" offset="1"/></linearGradient><filter id="filter7799" color-interpolation-filters="sRGB"><feGaussianBlur id="feGaussianBlur7801" result="result8" stdDeviation="4"/><feOffset id="feOffset7803" dx="4" dy="4" result="result11"/><feComposite id="feComposite7805" in="SourceGraphic" in2="result11" operator="in" result="result6"/><feFlood id="feFlood7807" flood-color="#000" flood-opacity="1" in="result6" result="result10"/><feBlend id="feBlend7809" in="result6" in2="result10" mode="normal" result="result12"/><feComposite id="feComposite7811" in2="SourceGraphic" operator="in" result="result2"/></filter><linearGradient id="linearGradient7866" x1="42.704" x2="60.975" y1="1017.292" y2="1027.862" gradientUnits="userSpaceOnUse" xlink:href="#linearGradient7845"/><linearGradient id="linearGradient7845"><stop id="stop7847" offset="0" style="stop-color:#e3e4e3;stop-opacity:1"/><stop style="stop-color:#fff;stop-opacity:1" id="stop7855" offset=".337"/><stop style="stop-color:#fff;stop-opacity:1" id="stop7851" offset=".779"/><stop id="stop7853" offset="1" style="stop-color:#eee;stop-opacity:1"/></linearGradient><linearGradient id="linearGradient4327" x1="-138.332" x2="388.771" y1="986.015" y2="764.123" gradientTransform="matrix(0.06177898,0,0,0.06177898,-28.368932,961.00956)" gradientUnits="userSpaceOnUse" xlink:href="#linearGradient4321"/><linearGradient id="linearGradient4360" x1="19.386" x2="42.777" y1="1052.952" y2="1029.108" gradientUnits="userSpaceOnUse" xlink:href="#linearGradient4354"/><linearGradient id="linearGradient4362" x1="19.386" x2="42.777" y1="1052.952" y2="1029.108" gradientUnits="userSpaceOnUse" xlink:href="#linearGradient4354"/><linearGradient id="linearGradient4364" x1="19.386" x2="42.777" y1="1052.952" y2="1029.108" gradientUnits="userSpaceOnUse" xlink:href="#linearGradient4354"/><linearGradient id="linearGradient4366" x1="19.386" x2="42.777" y1="1052.952" y2="1029.108" gradientUnits="userSpaceOnUse" xlink:href="#linearGradient4354"/><linearGradient id="linearGradient4373" x1="19.386" x2="42.777" y1="1052.952" y2="1029.108" gradientTransform="matrix(0.53359487,0,0,0.53359487,-28.874041,477.57575)" gradientUnits="userSpaceOnUse" xlink:href="#linearGradient4354"/><linearGradient id="linearGradient3904" x1="-23.4" x2="8.147" y1="8.182" y2="-.75" gradientUnits="userSpaceOnUse" xlink:href="#linearGradient4263"/><linearGradient id="linearGradient4263"><stop style="stop-color:#bfbfbf;stop-opacity:1" id="stop4265" offset="0"/><stop style="stop-color:#fff;stop-opacity:1" id="stop4267" offset="1"/></linearGradient><radialGradient id="radialGradient3878" cx="33.772" cy="40.636" r="17.498" fx="33.772" fy="40.636" gradientTransform="matrix(1.161721,0,0,1.0498451,-2.6955965,978.41529)" gradientUnits="userSpaceOnUse" xlink:href="#linearGradient4263"/><linearGradient id="linearGradient3252"><stop style="stop-color:#bfbfbf;stop-opacity:1" id="stop3254" offset="0"/><stop style="stop-color:#fff;stop-opacity:1" id="stop3256" offset="1"/></linearGradient><linearGradient id="linearGradient3037" x1="266.694" x2="414.934" y1="164.762" y2="619.088" gradientTransform="matrix(0.02851737,0,0,0.02851737,0.39670267,1017.5151)" gradientUnits="userSpaceOnUse" xlink:href="#linearGradient3906"/><linearGradient id="linearGradient3906"><stop style="stop-color:#fff;stop-opacity:0" id="stop3908" offset="0"/><stop style="stop-color:#fff;stop-opacity:1" id="stop3910" offset=".359"/><stop style="stop-color:#fff;stop-opacity:.43333334" id="stop3912" offset=".884"/><stop style="stop-color:#fff;stop-opacity:0" id="stop3914" offset="1"/></linearGradient><radialGradient id="radialGradient3320" cx="33.772" cy="40.636" r="17.498" fx="33.772" fy="40.636" gradientTransform="matrix(0.40031375,0,0,0.36176279,-1.1666316,1019.8464)" gradientUnits="userSpaceOnUse" xlink:href="#linearGradient4321"/><linearGradient id="linearGradient4104" x1="-22.431" x2="43.138" y1="8.182" y2="8.182" gradientUnits="userSpaceOnUse" xlink:href="#linearGradient4321"/><linearGradient id="linearGradient4106" x1="-23.4" x2="8.147" y1="8.182" y2="-.75" gradientUnits="userSpaceOnUse" xlink:href="#linearGradient4321"/><linearGradient id="linearGradient4005" x1="-22.431" x2="43.138" y1="8.182" y2="8.182" gradientUnits="userSpaceOnUse" xlink:href="#linearGradient4321"/></defs><metadata id="metadata7"/><g id="layer1" transform="translate(0,-1014.3622)"><rect style="fill:none;stroke:none" id="rect2383" width="21.908" height="21.908" x="1.193" y="1022.066"/><path style="fill:url(#radialGradient3320);fill-opacity:1;fill-rule:nonzero;stroke:none" id="path4253" d="m 5.3883104,1028.257 c -0.642191,-0.7795 2.140444,0.7286 5.5875716,0.7412 1.438577,0.088 1.98257,0.5052 2.386612,0.9283 0.906483,0.854 1.103487,1.287 2.250247,0.7345 0.467143,-0.2249 1.042176,-1.5562 1.690652,-1.6988 0.505553,-0.074 1.247241,0.5644 1.433062,0.7478 0.202853,0.2001 0.387351,0.386 0.581105,0.4749 -0.665241,0.036 -1.587106,1.5879 -1.610533,2.9065 0.132656,3.6847 -1.526113,3.4815 -3.157653,5.2842 -0.5202,0.4959 -0.811837,1.5345 -0.812317,2.482 l -0.685249,-0.021 c -0.406202,0.011 -0.86985,-0.5194 -1.094447,-0.8734 -0.428848,-0.7147 -0.872263,0.6545 -1.539404,-0.4674 0.03087,-0.371 -1.7809806,-0.4435 -0.7400166,-1.3101 2.4586346,-1.7404 3.6591496,-2.1069 3.6077196,-2.6315 -0.06076,-0.62 -1.502355,-0.059 -2.804313,-0.1188 -2.1507696,-0.099 -1.9140976,-1.4623 -2.1047556,-2.0965 -1.805606,-1.0054 1.387993,-1.4783 -0.01445,-1.775 -0.685271,-0.1087 -1.894377,0.1459 -2.14918,-1.0393 0.229143,0.2831 3.227439,-0.2957 2.01904,-0.4845 -1.676726,-0.7609 -2.148461,-0.3535 -2.843689,-1.7832 z"/><path style="fill:none;stroke:url(#linearGradient4106);stroke-width:7.67192268;stroke-linecap:round;stroke-linejoin:miter;stroke-miterlimit:4;stroke-opacity:1;stroke-dasharray:none;stroke-dashoffset:0" id="path3852-5" d="M 24.440895,39.751599 -2.0082281,40.466448 -21.216057,22.269568 -21.930906,-4.1795557 -3.7340262,-23.387385 22.715097,-24.102234 41.922926,-5.9053538 42.637775,20.54377 z" transform="matrix(0.32573221,0.00925099,-0.00925099,0.32573221,8.7032455,1030.6012)"/></g></svg>