<?xml version="1.0" encoding="UTF-8" standalone="no"?>
<!-- Created with Inkscape (http://www.inkscape.org/) -->

<svg
   xmlns:dc="http://purl.org/dc/elements/1.1/"
   xmlns:cc="http://creativecommons.org/ns#"
   xmlns:rdf="http://www.w3.org/1999/02/22-rdf-syntax-ns#"
   xmlns:svg="http://www.w3.org/2000/svg"
   xmlns="http://www.w3.org/2000/svg"
   xmlns:xlink="http://www.w3.org/1999/xlink"
   xmlns:inkscape="http://www.inkscape.org/namespaces/inkscape"
   version="1.0"
   width="96"
   height="96"
   id="svg2408">
  <defs
     id="defs2410">
    <linearGradient
       id="linearGradient3731">
      <stop
         id="stop3733"
         style="stop-color:#dcdcdc;stop-opacity:1"
         offset="0" />
      <stop
         id="stop3757"
         style="stop-color:#ebebeb;stop-opacity:1"
         offset="0.30654153" />
      <stop
         id="stop3737"
         style="stop-color:#ffffff;stop-opacity:1"
         offset="0.70706075" />
      <stop
         id="stop3759"
         style="stop-color:#fafafa;stop-opacity:1"
         offset="0.84501493" />
      <stop
         id="stop3735"
         style="stop-color:#f0f0f0;stop-opacity:1"
         offset="1" />
    </linearGradient>
    <linearGradient
       id="linearGradient2881">
      <stop
         id="stop2883"
         style="stop-color:#a90c0c;stop-opacity:1"
         offset="0" />
      <stop
         id="stop2885"
         style="stop-color:#f05530;stop-opacity:1"
         offset="1" />
    </linearGradient>
    <linearGradient
       x1="45.447727"
       y1="92.539597"
       x2="45.447727"
       y2="7.0165396"
       id="ButtonShadow"
       gradientUnits="userSpaceOnUse"
       gradientTransform="scale(1.0058652,0.994169)">
      <stop
         id="stop3750"
         style="stop-color:#000000;stop-opacity:1"
         offset="0" />
      <stop
         id="stop3752"
         style="stop-color:#000000;stop-opacity:0.58823532"
         offset="1" />
    </linearGradient>
    <linearGradient
       id="linearGradient3737">
      <stop
         id="stop3739"
         style="stop-color:#ffffff;stop-opacity:1"
         offset="0" />
      <stop
         id="stop3741"
         style="stop-color:#ffffff;stop-opacity:0"
         offset="1" />
    </linearGradient>
    <filter
       color-interpolation-filters="sRGB"
       id="filter3174">
      <feGaussianBlur
         id="feGaussianBlur3176"
         stdDeviation="1.71" />
    </filter>
    <linearGradient
       x1="36.357143"
       y1="6"
       x2="36.357143"
       y2="63.893143"
       id="linearGradient3188"
       xlink:href="#linearGradient3737"
       gradientUnits="userSpaceOnUse" />
    <filter
       x="-0.192"
       y="-0.192"
       width="1.3839999"
       height="1.3839999"
       color-interpolation-filters="sRGB"
       id="filter3794">
      <feGaussianBlur
         id="feGaussianBlur3796"
         stdDeviation="5.28" />
    </filter>
    <linearGradient
       x1="48"
       y1="20.220806"
       x2="48"
       y2="138.66119"
       id="linearGradient3613"
       xlink:href="#linearGradient3737"
       gradientUnits="userSpaceOnUse" />
    <radialGradient
       cx="48"
       cy="90.171875"
       r="42"
       fx="48"
       fy="90.171875"
       id="radialGradient3619"
       xlink:href="#linearGradient3737"
       gradientUnits="userSpaceOnUse"
       gradientTransform="matrix(1.1573129,0,0,0.99590774,-7.5510206,0.19713193)" />
    <clipPath
       id="clipPath3613">
      <rect
         width="84"
         height="84"
         rx="6"
         ry="6"
         x="6"
         y="6"
         id="rect3615"
         style="fill:#ffffff;fill-opacity:1;fill-rule:nonzero;stroke:none" />
    </clipPath>
    <linearGradient
       x1="48"
       y1="90"
       x2="48"
       y2="5.9877172"
       id="linearGradient3617"
       xlink:href="#linearGradient2881"
       gradientUnits="userSpaceOnUse" />
    <linearGradient
       x1="45.447727"
       y1="92.539597"
       x2="45.447727"
       y2="7.0165396"
       id="ButtonShadow-0"
       gradientUnits="userSpaceOnUse"
       gradientTransform="matrix(1.0058652,0,0,0.994169,100,0)">
      <stop
         id="stop3750-8"
         style="stop-color:#000000;stop-opacity:1"
         offset="0" />
      <stop
         id="stop3752-5"
         style="stop-color:#000000;stop-opacity:0.58823532"
         offset="1" />
    </linearGradient>
    <linearGradient
       x1="32.251034"
       y1="6.1317081"
       x2="32.251034"
       y2="90.238609"
       id="linearGradient3780"
       xlink:href="#ButtonShadow-0"
       gradientUnits="userSpaceOnUse"
       gradientTransform="matrix(1.0238095,0,0,1.0119048,-1.1428571,-98.071429)" />
    <linearGradient
       x1="32.251034"
       y1="6.1317081"
       x2="32.251034"
       y2="90.238609"
       id="linearGradient3772"
       xlink:href="#ButtonShadow-0"
       gradientUnits="userSpaceOnUse"
       gradientTransform="matrix(1.0238095,0,0,1.0119048,-1.1428571,-98.071429)" />
    <linearGradient
       x1="32.251034"
       y1="6.1317081"
       x2="32.251034"
       y2="90.238609"
       id="linearGradient3725"
       xlink:href="#ButtonShadow-0"
       gradientUnits="userSpaceOnUse"
       gradientTransform="matrix(1.0238095,0,0,1.0119048,-1.1428571,-98.071429)" />
    <linearGradient
       x1="32.251034"
       y1="6.1317081"
       x2="32.251034"
       y2="90.238609"
       id="linearGradient3721"
       xlink:href="#ButtonShadow-0"
       gradientUnits="userSpaceOnUse"
       gradientTransform="translate(0,-97)" />
    <linearGradient
       x1="32.251034"
       y1="6.1317081"
       x2="32.251034"
       y2="90.238609"
       id="linearGradient2918"
       xlink:href="#ButtonShadow-0"
       gradientUnits="userSpaceOnUse"
       gradientTransform="matrix(1.0238095,0,0,1.0119048,-1.1428571,-98.071429)" />
    <linearGradient
       x1="6.6201301"
       y1="16.384687"
       x2="6.6201301"
       y2="1.0923122"
       id="linearGradient3053"
       xlink:href="#linearGradient3731"
       gradientUnits="userSpaceOnUse"
       gradientTransform="matrix(-4.5057883,0,0,3.8842887,81.128906,14.057144)" />
  </defs>
  <metadata
     id="metadata2413">
    <rdf:RDF>
      <cc:Work
         rdf:about="">
        <dc:format>image/svg+xml</dc:format>
        <dc:type
           rdf:resource="http://purl.org/dc/dcmitype/StillImage" />
        <dc:title />
      </cc:Work>
    </rdf:RDF>
  </metadata>
  <g
     id="layer2"
     style="display:none">
    <rect
       width="86"
       height="85"
       rx="6"
       ry="6"
       x="5"
       y="7"
       id="rect3745"
       style="opacity:0.9;fill:url(#ButtonShadow);fill-opacity:1;fill-rule:nonzero;stroke:none;filter:url(#filter3174)" />
  </g>
  <g
     id="layer7"
     style="display:inline">
    <path
       d="m 12,-95.03125 c -5.5110903,0 -10.03125,4.52016 -10.03125,10.03125 l 0,71 c 0,5.5110902 4.5201598,10.03125 10.03125,10.03125 l 72,0 c 5.51109,0 10.03125,-4.5201597 10.03125,-10.03125 l 0,-71 c 0,-5.51109 -4.52016,-10.03125 -10.03125,-10.03125 l -72,0 z"
       transform="scale(1,-1)"
       id="path3786"
       style="opacity:0.07999998;fill:url(#linearGradient2918);fill-opacity:1;fill-rule:nonzero;stroke:none;display:inline" />
    <path
       d="m 12,-94.03125 c -4.971633,0 -9.03125,4.059617 -9.03125,9.03125 l 0,71 c 0,4.9716329 4.0596171,9.03125 9.03125,9.03125 l 72,0 c 4.971633,0 9.03125,-4.059617 9.03125,-9.03125 l 0,-71 c 0,-4.971633 -4.059617,-9.03125 -9.03125,-9.03125 l -72,0 z"
       transform="scale(1,-1)"
       id="path3778"
       style="opacity:0.1;fill:url(#linearGradient3780);fill-opacity:1;fill-rule:nonzero;stroke:none;display:inline" />
    <path
       d="m 12,-93 c -4.4091333,0 -8,3.590867 -8,8 l 0,71 c 0,4.4091333 3.5908667,8 8,8 l 72,0 c 4.409133,0 8,-3.5908667 8,-8 l 0,-71 c 0,-4.409133 -3.590867,-8 -8,-8 l -72,0 z"
       transform="scale(1,-1)"
       id="path3770"
       style="opacity:0.2;fill:url(#linearGradient3772);fill-opacity:1;fill-rule:nonzero;stroke:none;display:inline" />
    <rect
       width="86"
       height="85"
       rx="7"
       ry="7"
       x="5"
       y="-92"
       transform="scale(1,-1)"
       id="rect3723"
       style="opacity:0.3;fill:url(#linearGradient3725);fill-opacity:1;fill-rule:nonzero;stroke:none;display:inline" />
    <rect
       width="84"
       height="84"
       rx="6"
       ry="6"
       x="6"
       y="-91"
       transform="scale(1,-1)"
       id="rect3716"
       style="opacity:0.45;fill:url(#linearGradient3721);fill-opacity:1;fill-rule:nonzero;stroke:none;display:inline" />
  </g>
  <g
     id="layer1"
     style="display:inline">
    <rect
       width="84"
       height="84"
       rx="6"
       ry="6"
       x="6"
       y="6"
       id="rect2419"
       style="fill:url(#linearGradient3617);fill-opacity:1;fill-rule:nonzero;stroke:none" />
    <path
       d="M 12,6 C 8.676,6 6,8.676 6,12 l 0,2 0,68 0,2 c 0,0.334721 0.04135,0.6507 0.09375,0.96875 0.0487,0.295596 0.09704,0.596915 0.1875,0.875 0.00988,0.03038 0.020892,0.0636 0.03125,0.09375 0.098865,0.287771 0.2348802,0.547452 0.375,0.8125 0.1445918,0.273507 0.3156161,0.535615 0.5,0.78125 0.1843839,0.245635 0.3737765,0.473472 0.59375,0.6875 0.439947,0.428056 0.94291,0.814526 1.5,1.09375 0.278545,0.139612 0.5734731,0.246947 0.875,0.34375 -0.2562018,-0.100222 -0.4867109,-0.236272 -0.71875,-0.375 -0.00741,-0.0044 -0.023866,0.0045 -0.03125,0 -0.031933,-0.0193 -0.062293,-0.04251 -0.09375,-0.0625 -0.120395,-0.0767 -0.2310226,-0.163513 -0.34375,-0.25 -0.1061728,-0.0808 -0.2132809,-0.161112 -0.3125,-0.25 C 8.4783201,88.557317 8.3087904,88.373362 8.15625,88.1875 8.0486711,88.057245 7.9378561,87.922215 7.84375,87.78125 7.818661,87.74287 7.805304,87.69538 7.78125,87.65625 7.716487,87.553218 7.6510225,87.451733 7.59375,87.34375 7.4927417,87.149044 7.3880752,86.928049 7.3125,86.71875 7.30454,86.69694 7.288911,86.6782 7.28125,86.65625 7.2494249,86.5643 7.2454455,86.469419 7.21875,86.375 7.1884177,86.268382 7.1483606,86.171969 7.125,86.0625 7.0521214,85.720988 7,85.364295 7,85 L 7,83 7,15 7,13 C 7,10.218152 9.2181517,8 12,8 l 2,0 68,0 2,0 c 2.781848,0 5,2.218152 5,5 l 0,2 0,68 0,2 c 0,0.364295 -0.05212,0.720988 -0.125,1.0625 -0.04415,0.206893 -0.08838,0.397658 -0.15625,0.59375 -0.0077,0.02195 -0.0233,0.04069 -0.03125,0.0625 -0.06274,0.173739 -0.138383,0.367449 -0.21875,0.53125 -0.04158,0.0828 -0.07904,0.169954 -0.125,0.25 -0.0546,0.09721 -0.126774,0.18835 -0.1875,0.28125 -0.09411,0.140965 -0.204921,0.275995 -0.3125,0.40625 -0.143174,0.17445 -0.303141,0.346998 -0.46875,0.5 -0.01117,0.0102 -0.01998,0.02115 -0.03125,0.03125 -0.138386,0.125556 -0.285091,0.234436 -0.4375,0.34375 -0.102571,0.07315 -0.204318,0.153364 -0.3125,0.21875 -0.0074,0.0045 -0.02384,-0.0044 -0.03125,0 -0.232039,0.138728 -0.462548,0.274778 -0.71875,0.375 0.301527,-0.0968 0.596455,-0.204138 0.875,-0.34375 0.55709,-0.279224 1.060053,-0.665694 1.5,-1.09375 0.219973,-0.214028 0.409366,-0.441865 0.59375,-0.6875 0.184384,-0.245635 0.355408,-0.507743 0.5,-0.78125 0.14012,-0.265048 0.276135,-0.524729 0.375,-0.8125 0.01041,-0.03078 0.02133,-0.06274 0.03125,-0.09375 0.09046,-0.278085 0.1388,-0.579404 0.1875,-0.875 C 89.95865,84.6507 90,84.334721 90,84 l 0,-2 0,-68 0,-2 C 90,8.676 87.324,6 84,6 L 12,6 z"
       inkscape:connector-curvature="0"
       id="rect3728"
       style="opacity:0.4;fill:url(#linearGradient3188);fill-opacity:1;fill-rule:nonzero;stroke:none" />
    <path
       d="M 12,90 C 8.676,90 6,87.324 6,84 L 6,82 6,14 6,12 c 0,-0.334721 0.04135,-0.6507 0.09375,-0.96875 0.0487,-0.295596 0.09704,-0.596915 0.1875,-0.875 C 6.29113,10.12587 6.302142,10.09265 6.3125,10.0625 6.411365,9.774729 6.5473802,9.515048 6.6875,9.25 6.8320918,8.976493 7.0031161,8.714385 7.1875,8.46875 7.3718839,8.223115 7.5612765,7.995278 7.78125,7.78125 8.221197,7.353194 8.72416,6.966724 9.28125,6.6875 9.559795,6.547888 9.8547231,6.440553 10.15625,6.34375 9.9000482,6.443972 9.6695391,6.580022 9.4375,6.71875 c -0.00741,0.0044 -0.023866,-0.0045 -0.03125,0 -0.031933,0.0193 -0.062293,0.04251 -0.09375,0.0625 -0.120395,0.0767 -0.2310226,0.163513 -0.34375,0.25 -0.1061728,0.0808 -0.2132809,0.161112 -0.3125,0.25 C 8.4783201,7.442683 8.3087904,7.626638 8.15625,7.8125 8.0486711,7.942755 7.9378561,8.077785 7.84375,8.21875 7.818661,8.25713 7.805304,8.30462 7.78125,8.34375 7.716487,8.446782 7.6510225,8.548267 7.59375,8.65625 7.4927417,8.850956 7.3880752,9.071951 7.3125,9.28125 7.30454,9.30306 7.288911,9.3218 7.28125,9.34375 7.2494249,9.4357 7.2454455,9.530581 7.21875,9.625 7.1884177,9.731618 7.1483606,9.828031 7.125,9.9375 7.0521214,10.279012 7,10.635705 7,11 l 0,2 0,68 0,2 c 0,2.781848 2.2181517,5 5,5 l 2,0 68,0 2,0 c 2.781848,0 5,-2.218152 5,-5 l 0,-2 0,-68 0,-2 C 89,10.635705 88.94788,10.279012 88.875,9.9375 88.83085,9.730607 88.78662,9.539842 88.71875,9.34375 88.71105,9.3218 88.69545,9.30306 88.6875,9.28125 88.62476,9.107511 88.549117,8.913801 88.46875,8.75 88.42717,8.6672 88.38971,8.580046 88.34375,8.5 88.28915,8.40279 88.216976,8.31165 88.15625,8.21875 88.06214,8.077785 87.951329,7.942755 87.84375,7.8125 87.700576,7.63805 87.540609,7.465502 87.375,7.3125 87.36383,7.3023 87.35502,7.29135 87.34375,7.28125 87.205364,7.155694 87.058659,7.046814 86.90625,6.9375 86.803679,6.86435 86.701932,6.784136 86.59375,6.71875 c -0.0074,-0.0045 -0.02384,0.0044 -0.03125,0 -0.232039,-0.138728 -0.462548,-0.274778 -0.71875,-0.375 0.301527,0.0968 0.596455,0.204138 0.875,0.34375 0.55709,0.279224 1.060053,0.665694 1.5,1.09375 0.219973,0.214028 0.409366,0.441865 0.59375,0.6875 0.184384,0.245635 0.355408,0.507743 0.5,0.78125 0.14012,0.265048 0.276135,0.524729 0.375,0.8125 0.01041,0.03078 0.02133,0.06274 0.03125,0.09375 0.09046,0.278085 0.1388,0.579404 0.1875,0.875 C 89.95865,11.3493 90,11.665279 90,12 l 0,2 0,68 0,2 c 0,3.324 -2.676,6 -6,6 l -72,0 z"
       inkscape:connector-curvature="0"
       id="path3615"
       style="opacity:0.2;fill:url(#radialGradient3619);fill-opacity:1;fill-rule:nonzero;stroke:none" />
  </g>
  <g
     id="layer5"
     style="display:none">
    <rect
       width="66"
       height="66"
       rx="12"
       ry="12"
       x="15"
       y="15"
       clip-path="url(#clipPath3613)"
       id="rect3171"
       style="opacity:0.1;fill:url(#linearGradient3613);fill-opacity:1;fill-rule:nonzero;stroke:#ffffff;stroke-width:0.5;stroke-linecap:round;stroke-linejoin:miter;stroke-miterlimit:4;stroke-opacity:1;stroke-dasharray:none;stroke-dashoffset:0;filter:url(#filter3794)" />
  </g>
  <g
     id="layer3">
    <path
       d="m 42.46875,17.3125 c -2.037202,0.378302 -1.844432,2.881804 -2.479218,4.408233 -1.111094,3.926422 -2.222188,7.852845 -3.333282,11.779267 -6.166725,-0.973921 -12.332864,-2.156029 -18.5,-3 -1.879999,0.02298 -2.49591,2.723301 -0.982474,3.704269 3.587908,3.577743 7.175816,7.155487 10.763724,10.733231 -4.696986,1.937864 -9.482698,3.710066 -14.125,5.75 -1.678031,1.042562 -0.633749,3.80989 1.278959,3.68684 4.521597,0.75022 9.043194,1.50044 13.564791,2.25066 -4.051147,4.920497 -8.276174,9.727005 -12.21875,14.71875 -0.762115,1.679258 1.238331,3.394235 2.832211,2.58439 5.753847,-1.632296 11.507693,-3.264593 17.261539,-4.89689 1.077194,3.561537 1.967608,7.208951 3.15625,10.71875 0.8379,1.401997 2.899485,1.095038 3.690545,-0.190545 2.748985,-2.748985 5.49797,-5.49797 8.246955,-8.246955 5.18974,3.074927 10.364496,6.295616 15.5625,9.28125 1.673737,0.633544 3.214654,-1.35827 2.444782,-2.898095 C 68.525688,72.484604 67.419094,67.273552 66.3125,62.0625 c 5.090864,-0.436268 10.204858,-0.715425 15.28125,-1.25 1.82506,-0.515491 1.780081,-3.190459 0.101434,-3.860755 C 77.869706,54.21783 74.044228,51.483915 70.21875,48.75 c 2.687405,-1.68645 5.624979,-3.249494 8.15625,-5 1.318482,-1.328195 -0.03015,-3.631922 -1.813041,-3.408098 -2.364403,-0.270217 -4.728806,-0.540435 -7.093209,-0.810652 3.360184,-5.433 6.838143,-10.819319 10.125,-16.28125 0.662025,-1.771925 -1.5926,-3.401543 -3.093543,-2.311543 C 68.875138,24.427721 61.250069,27.916986 53.625,31.40625 50.445502,26.899127 47.365526,22.285139 44.125,17.84375 43.709063,17.394871 43.0594,17.264847 42.46875,17.3125 z M 46,41 c 1.333333,0 2.666667,0 4,0 0,3.333333 0,6.666667 0,10 -1.333333,0 -2.666667,0 -4,0 0,-3.333333 0,-6.666667 0,-10 z m 0,16 c 1.333333,0 2.666667,0 4,0 0,1.333333 0,2.666667 0,4 -1.333333,0 -2.666667,0 -4,0 0,-1.333333 0,-2.666667 0,-4 z"
       inkscape:connector-curvature="0"
       id="path3901"
       style="opacity:0.07999998;fill:#550000;fill-opacity:1;stroke:none;display:inline" />
    <path
       d="m 42.625,18.34375 a 0.97455417,0.97455417 0 0 0 -0.8125,0.71875 l -4.40625,15.625 -18.9375,-3.15625 A 0.97455417,0.97455417 0 0 0 17.625,33.1875 l 12.125,12.125 -15.125,6.09375 a 0.97455417,0.97455417 0 0 0 0.21875,1.875 l 15.75,2.59375 -13.03125,15.59375 a 0.97455417,0.97455417 0 0 0 1.03125,1.5625 L 37.25,67.75 40.46875,78.96875 a 0.97455417,0.97455417 0 0 0 1.625,0.40625 l 9.375,-9.34375 15.84375,9.5 A 0.97455417,0.97455417 0 0 0 68.75,78.46875 L 65.0625,61.125 l 16,-1.25 a 0.97455417,0.97455417 0 0 0 0.5,-1.75 L 68.34375,48.6875 77.375,43.25 A 0.97455417,0.97455417 0 0 0 77,41.4375 L 67.71875,40.375 78.5,23.125 a 0.97455417,0.97455417 0 0 0 -1.21875,-1.40625 l -24,11 L 43.5625,18.75 A 0.97455417,0.97455417 0 0 0 42.625,18.34375 z m 2.375,21.625 6,0 c 0.03101,0 0.03125,2.44e-4 0.03125,0.03125 l 0,12 c 0,0.03101 -2.44e-4,0.03125 -0.03125,0.03125 l -6,0 c -0.03101,0 -0.03125,-2.44e-4 -0.03125,-0.03125 l 0,-12 c 0,-0.03101 2.44e-4,-0.03125 0.03125,-0.03125 z m 0,16 6,0 c 0.03101,0 0.03125,2.44e-4 0.03125,0.03125 l 0,6 c 0,0.03101 -2.44e-4,0.03125 -0.03125,0.03125 l -6,0 c -0.03101,0 -0.03125,-2.44e-4 -0.03125,-0.03125 l 0,-6 c 0,-0.03101 2.44e-4,-0.03125 0.03125,-0.03125 z"
       id="path3897"
       style="opacity:0.15;fill:#550000;fill-opacity:1;stroke:none;display:inline" />
    <path
       d="m 42.75,19.3125 -4.65625,16.5 L 18.3125,32.5 31.5,45.6875 15,52.3125 l 17.4375,2.875 -14.125,16.90625 19.59375,-5.5625 3.5,12.15625 9.90625,-9.875 16.5,9.875 L 63.875,60.25 81,58.90625 66.5625,48.59375 76.875,42.40625 66.0625,41.15625 77.6875,22.59375 52.9375,33.9375 42.75,19.3125 z M 45,39 l 6,0 c 0.554,0 1,0.446 1,1 l 0,12 c 0,0.554 -0.446,1 -1,1 l -6,0 c -0.554,0 -1,-0.446 -1,-1 l 0,-12 c 0,-0.554 0.446,-1 1,-1 z m 0,16 6,0 c 0.554,0 1,0.446 1,1 l 0,6 c 0,0.554 -0.446,1 -1,1 l -6,0 c -0.554,0 -1,-0.446 -1,-1 l 0,-6 c 0,-0.554 0.446,-1 1,-1 z"
       inkscape:connector-curvature="0"
       id="path3891"
       style="opacity:0.3;fill:#550000;fill-opacity:1;stroke:none;display:inline" />
    <path
       d="m 42.75,18.3125 -4.65625,16.5 L 18.3125,31.5 31.5,44.6875 15,51.3125 l 17.4375,2.875 -14.125,16.90625 19.59375,-5.5625 3.5,12.15625 9.90625,-9.875 16.5,9.875 L 63.875,59.25 81,57.90625 66.5625,47.59375 76.875,41.40625 66.0625,40.15625 77.6875,21.59375 52.9375,32.9375 42.75,18.3125 z M 45,38 l 6,0 c 0.554,0 1,0.446 1,1 l 0,12 c 0,0.554 -0.446,1 -1,1 l -6,0 c -0.554,0 -1,-0.446 -1,-1 l 0,-12 c 0,-0.554 0.446,-1 1,-1 z m 0,16 6,0 c 0.554,0 1,0.446 1,1 l 0,6 c 0,0.554 -0.446,1 -1,1 l -6,0 c -0.554,0 -1,-0.446 -1,-1 l 0,-6 c 0,-0.554 0.446,-1 1,-1 z"
       inkscape:connector-curvature="0"
       id="Symbol"
       style="fill:url(#linearGradient3053);fill-opacity:1;stroke:none;display:inline" />
    <path
       d="m 42.75,18.3125 -4.65625,16.5 L 18.3125,31.5 l 2.40625,2.40625 17.375,2.90625 4.65625,-16.5 10.1875,14.625 23,-10.53125 1.75,-2.8125 L 52.9375,32.9375 42.75,18.3125 z m 24.46875,21.96875 -1.15625,1.875 8.03125,0.9375 2.78125,-1.6875 -9.65625,-1.125 z M 30.0625,45.25 15,51.3125 18.53125,51.90625 31.5,46.6875 30.0625,45.25 z m 38.03125,3.4375 -1.53125,0.90625 11.90625,8.5 L 81,57.90625 68.09375,48.6875 z M 44,51 l 0,2 c 0,0.554 0.446,1 1,1 l 6,0 c 0.554,0 1,-0.446 1,-1 l 0,-2 c 0,0.554 -0.446,1 -1,1 l -6,0 c -0.554,0 -1,-0.446 -1,-1 z M 30.96875,55.9375 18.3125,71.09375 20.5,70.46875 32.4375,56.1875 30.96875,55.9375 z M 44,61 l 0,2 c 0,0.554 0.446,1 1,1 l 6,0 c 0.554,0 1,-0.446 1,-1 l 0,-2 c 0,0.554 -0.446,1 -1,1 l -6,0 c -0.554,0 -1,-0.446 -1,-1 z M 64.28125,61.21875 63.875,61.25 l 3.4375,16.15625 0.5,0.28125 -3.53125,-16.46875 z"
       inkscape:connector-curvature="0"
       id="path3905"
       style="opacity:0.4;fill:#ffffff;fill-opacity:1;stroke:none;display:inline" />
    <path
       d="m 42.75,18.3125 -4.65625,16.5 L 18.3125,31.5 19.5,32.6875 38.09375,35.8125 42.75,19.3125 52.9375,33.9375 76.8125,23 77.6875,21.59375 52.9375,32.9375 42.75,18.3125 z M 66.65625,40.21875 66.0625,41.15625 75.46875,42.25 76.875,41.40625 66.65625,40.21875 z m -35.875,4.75 L 15,51.3125 16.75,51.59375 31.5,45.6875 30.78125,44.96875 z M 67.3125,48.125 66.5625,48.59375 79.75,58 81,57.90625 67.3125,48.125 z M 44,51 l 0,1 c 0,0.554 0.446,1 1,1 l 6,0 c 0.554,0 1,-0.446 1,-1 l 0,-1 c 0,0.554 -0.446,1 -1,1 l -6,0 c -0.554,0 -1,-0.446 -1,-1 z M 31.71875,55.0625 18.3125,71.09375 19.40625,70.78125 32.4375,55.1875 31.71875,55.0625 z m 32.375,5.15625 -0.21875,0.03125 3.6875,17.28125 0.25,0.15625 -3.71875,-17.46875 z M 44,61 l 0,1 c 0,0.554 0.446,1 1,1 l 6,0 c 0.554,0 1,-0.446 1,-1 l 0,-1 c 0,0.554 -0.446,1 -1,1 l -6,0 c -0.554,0 -1,-0.446 -1,-1 z"
       inkscape:connector-curvature="0"
       id="path3914"
       style="opacity:0.8;fill:#ffffff;fill-opacity:1;stroke:none;display:inline" />
  </g>
</svg>
